<svg width="385" height="412" viewBox="0 0 385 412" fill="none" xmlns="http://www.w3.org/2000/svg">
<g filter="url(#filter0_d_211_2)">
<circle cx="302" cy="6" r="6" fill="url(#paint0_radial_211_2)" shape-rendering="crispEdges"/>
</g>
<g filter="url(#filter1_d_211_2)">
<circle cx="375" cy="56" r="6" fill="url(#paint1_radial_211_2)" shape-rendering="crispEdges"/>
</g>
<g filter="url(#filter2_d_211_2)">
<path d="M308 56C308 59.3137 305.314 62 302 62C298.686 62 296 59.3137 296 56C296 52.6863 298.686 50 302 50C305.314 50 308 52.6863 308 56Z" fill="url(#paint2_radial_211_2)" shape-rendering="crispEdges"/>
</g>
<path d="M381 106C381 109.314 378.314 112 375 112C371.686 112 369 109.314 369 106C369 102.686 371.686 100 375 100C378.314 100 381 102.686 381 106Z" fill="url(#paint3_radial_211_2)"/>
<path d="M308 106C308 109.314 305.314 112 302 112C298.686 112 296 109.314 296 106C296 102.686 298.686 100 302 100C305.314 100 308 102.686 308 106Z" fill="url(#paint4_radial_211_2)"/>
<g filter="url(#filter3_d_211_2)">
<circle cx="375" cy="6" r="6" fill="url(#paint5_radial_211_2)" shape-rendering="crispEdges"/>
</g>
<circle cx="302" cy="306" r="5.5" fill="url(#paint6_radial_211_2)" stroke="#354EDC"/>
<circle cx="375" cy="356" r="5.5" fill="url(#paint7_radial_211_2)" stroke="#354EDC"/>
<path d="M307.5 356C307.5 359.038 305.038 361.5 302 361.5C298.962 361.5 296.5 359.038 296.5 356C296.5 352.962 298.962 350.5 302 350.5C305.038 350.5 307.5 352.962 307.5 356Z" fill="url(#paint8_radial_211_2)" stroke="#354EDC"/>
<path d="M381 406C381 409.314 378.314 412 375 412C371.686 412 369 409.314 369 406C369 402.686 371.686 400 375 400C378.314 400 381 402.686 381 406Z" fill="url(#paint9_radial_211_2)"/>
<path d="M308 406C308 409.314 305.314 412 302 412C298.686 412 296 409.314 296 406C296 402.686 298.686 400 302 400C305.314 400 308 402.686 308 406Z" fill="url(#paint10_radial_211_2)"/>
<circle cx="375" cy="306" r="5.5" fill="url(#paint11_radial_211_2)" stroke="#354EDC"/>
<circle cx="302" cy="156" r="6" fill="url(#paint12_radial_211_2)"/>
<circle cx="375" cy="206" r="6" fill="url(#paint13_radial_211_2)"/>
<path d="M308 206C308 209.314 305.314 212 302 212C298.686 212 296 209.314 296 206C296 202.686 298.686 200 302 200C305.314 200 308 202.686 308 206Z" fill="url(#paint14_radial_211_2)"/>
<path d="M380.5 256C380.5 259.038 378.038 261.5 375 261.5C371.962 261.5 369.5 259.038 369.5 256C369.5 252.962 371.962 250.5 375 250.5C378.038 250.5 380.5 252.962 380.5 256Z" fill="url(#paint15_radial_211_2)" stroke="#354EDC"/>
<path d="M307.5 256C307.5 259.038 305.038 261.5 302 261.5C298.962 261.5 296.5 259.038 296.5 256C296.5 252.962 298.962 250.5 302 250.5C305.038 250.5 307.5 252.962 307.5 256Z" fill="url(#paint16_radial_211_2)" stroke="#354EDC"/>
<circle cx="375" cy="156" r="6" fill="url(#paint17_radial_211_2)"/>
<path d="M89.0001 300C99.2655 267.673 40.0001 333.62 7.00006 333.62C-25.9999 333.62 81.0001 403 89.0001 391C97 379 73.0001 355.479 73.0001 355.479H161C161 355.479 153 367.239 185 333.62C217 300 73.0001 333.62 73.0001 333.62C73.0001 333.62 78.7346 332.327 89.0001 300Z" fill="url(#paint18_radial_211_2)"/>
<path d="M179.279 355.479C177.093 356.222 176 355.479 176 355.479H179.279C182.626 354.341 188.532 349.72 197 333.62C211 307 215 355.479 197 355.479H179.279Z" fill="url(#paint19_radial_211_2)"/>
<defs>
<filter id="filter0_d_211_2" x="292" y="0" width="20" height="20" filterUnits="userSpaceOnUse" color-interpolation-filters="sRGB">
<feFlood flood-opacity="0" result="BackgroundImageFix"/>
<feColorMatrix in="SourceAlpha" type="matrix" values="0 0 0 0 0 0 0 0 0 0 0 0 0 0 0 0 0 0 127 0" result="hardAlpha"/>
<feOffset dy="4"/>
<feGaussianBlur stdDeviation="2"/>
<feComposite in2="hardAlpha" operator="out"/>
<feColorMatrix type="matrix" values="0 0 0 0 0 0 0 0 0 0 0 0 0 0 0 0 0 0 0.25 0"/>
<feBlend mode="normal" in2="BackgroundImageFix" result="effect1_dropShadow_211_2"/>
<feBlend mode="normal" in="SourceGraphic" in2="effect1_dropShadow_211_2" result="shape"/>
</filter>
<filter id="filter1_d_211_2" x="365" y="50" width="20" height="20" filterUnits="userSpaceOnUse" color-interpolation-filters="sRGB">
<feFlood flood-opacity="0" result="BackgroundImageFix"/>
<feColorMatrix in="SourceAlpha" type="matrix" values="0 0 0 0 0 0 0 0 0 0 0 0 0 0 0 0 0 0 127 0" result="hardAlpha"/>
<feOffset dy="4"/>
<feGaussianBlur stdDeviation="2"/>
<feComposite in2="hardAlpha" operator="out"/>
<feColorMatrix type="matrix" values="0 0 0 0 0 0 0 0 0 0 0 0 0 0 0 0 0 0 0.25 0"/>
<feBlend mode="normal" in2="BackgroundImageFix" result="effect1_dropShadow_211_2"/>
<feBlend mode="normal" in="SourceGraphic" in2="effect1_dropShadow_211_2" result="shape"/>
</filter>
<filter id="filter2_d_211_2" x="292" y="50" width="20" height="20" filterUnits="userSpaceOnUse" color-interpolation-filters="sRGB">
<feFlood flood-opacity="0" result="BackgroundImageFix"/>
<feColorMatrix in="SourceAlpha" type="matrix" values="0 0 0 0 0 0 0 0 0 0 0 0 0 0 0 0 0 0 127 0" result="hardAlpha"/>
<feOffset dy="4"/>
<feGaussianBlur stdDeviation="2"/>
<feComposite in2="hardAlpha" operator="out"/>
<feColorMatrix type="matrix" values="0 0 0 0 0 0 0 0 0 0 0 0 0 0 0 0 0 0 0.25 0"/>
<feBlend mode="normal" in2="BackgroundImageFix" result="effect1_dropShadow_211_2"/>
<feBlend mode="normal" in="SourceGraphic" in2="effect1_dropShadow_211_2" result="shape"/>
</filter>
<filter id="filter3_d_211_2" x="365" y="0" width="20" height="20" filterUnits="userSpaceOnUse" color-interpolation-filters="sRGB">
<feFlood flood-opacity="0" result="BackgroundImageFix"/>
<feColorMatrix in="SourceAlpha" type="matrix" values="0 0 0 0 0 0 0 0 0 0 0 0 0 0 0 0 0 0 127 0" result="hardAlpha"/>
<feOffset dy="4"/>
<feGaussianBlur stdDeviation="2"/>
<feComposite in2="hardAlpha" operator="out"/>
<feColorMatrix type="matrix" values="0 0 0 0 0 0 0 0 0 0 0 0 0 0 0 0 0 0 0.25 0"/>
<feBlend mode="normal" in2="BackgroundImageFix" result="effect1_dropShadow_211_2"/>
<feBlend mode="normal" in="SourceGraphic" in2="effect1_dropShadow_211_2" result="shape"/>
</filter>
<radialGradient id="paint0_radial_211_2" cx="0" cy="0" r="1" gradientUnits="userSpaceOnUse" gradientTransform="translate(302 6) rotate(90) scale(6)">
<stop stop-color="#2752AD"/>
<stop offset="0.701" stop-color="#252CA5"/>
<stop offset="1" stop-color="#737373" stop-opacity="0"/>
</radialGradient>
<radialGradient id="paint1_radial_211_2" cx="0" cy="0" r="1" gradientUnits="userSpaceOnUse" gradientTransform="translate(375 56) rotate(90) scale(6)">
<stop stop-color="#2752AD"/>
<stop offset="0.701" stop-color="#252CA5"/>
<stop offset="1" stop-color="#737373" stop-opacity="0"/>
</radialGradient>
<radialGradient id="paint2_radial_211_2" cx="0" cy="0" r="1" gradientUnits="userSpaceOnUse" gradientTransform="translate(302 56) rotate(90) scale(6)">
<stop stop-color="#2752AD"/>
<stop offset="0.701" stop-color="#252CA5"/>
<stop offset="1" stop-color="#737373" stop-opacity="0"/>
</radialGradient>
<radialGradient id="paint3_radial_211_2" cx="0" cy="0" r="1" gradientUnits="userSpaceOnUse" gradientTransform="translate(375 106) rotate(90) scale(6)">
<stop stop-color="#4961EB"/>
<stop offset="0.751" stop-color="#5480CB"/>
<stop offset="1" stop-color="#16307E"/>
</radialGradient>
<radialGradient id="paint4_radial_211_2" cx="0" cy="0" r="1" gradientUnits="userSpaceOnUse" gradientTransform="translate(302 106) rotate(90) scale(6)">
<stop stop-color="#4961EB"/>
<stop offset="0.751" stop-color="#5480CB"/>
<stop offset="1" stop-color="#16307E"/>
</radialGradient>
<radialGradient id="paint5_radial_211_2" cx="0" cy="0" r="1" gradientUnits="userSpaceOnUse" gradientTransform="translate(375 6) rotate(90) scale(6)">
<stop stop-color="#2752AD"/>
<stop offset="0.701" stop-color="#252CA5"/>
<stop offset="1" stop-color="#737373" stop-opacity="0"/>
</radialGradient>
<radialGradient id="paint6_radial_211_2" cx="0" cy="0" r="1" gradientUnits="userSpaceOnUse" gradientTransform="translate(302 306) rotate(90) scale(6)">
<stop offset="1" stop-color="#3043F0"/>
</radialGradient>
<radialGradient id="paint7_radial_211_2" cx="0" cy="0" r="1" gradientUnits="userSpaceOnUse" gradientTransform="translate(375 356) rotate(90) scale(6)">
<stop offset="1" stop-color="#3043F0"/>
</radialGradient>
<radialGradient id="paint8_radial_211_2" cx="0" cy="0" r="1" gradientUnits="userSpaceOnUse" gradientTransform="translate(302 356) rotate(90) scale(6)">
<stop offset="1" stop-color="#3043F0"/>
</radialGradient>
<radialGradient id="paint9_radial_211_2" cx="0" cy="0" r="1" gradientUnits="userSpaceOnUse" gradientTransform="translate(375 406) rotate(90) scale(6)">
<stop stop-color="#5149EB"/>
<stop offset="0.871" stop-color="#7788FA"/>
<stop offset="1" stop-color="#3F5FEF"/>
</radialGradient>
<radialGradient id="paint10_radial_211_2" cx="0" cy="0" r="1" gradientUnits="userSpaceOnUse" gradientTransform="translate(302 406) rotate(90) scale(6)">
<stop stop-color="#5149EB"/>
<stop offset="0.871" stop-color="#7788FA"/>
<stop offset="1" stop-color="#3F5FEF"/>
</radialGradient>
<radialGradient id="paint11_radial_211_2" cx="0" cy="0" r="1" gradientUnits="userSpaceOnUse" gradientTransform="translate(375 306) rotate(90) scale(6)">
<stop offset="1" stop-color="#3043F0"/>
</radialGradient>
<radialGradient id="paint12_radial_211_2" cx="0" cy="0" r="1" gradientUnits="userSpaceOnUse" gradientTransform="translate(302 156) rotate(90) scale(6)">
<stop stop-color="#4961EB"/>
<stop offset="0.751" stop-color="#5480CB"/>
<stop offset="1" stop-color="#16307E"/>
</radialGradient>
<radialGradient id="paint13_radial_211_2" cx="0" cy="0" r="1" gradientUnits="userSpaceOnUse" gradientTransform="translate(375 206) rotate(90) scale(6)">
<stop stop-color="#4961EB"/>
<stop offset="0.751" stop-color="#5480CB"/>
<stop offset="1" stop-color="#16307E"/>
</radialGradient>
<radialGradient id="paint14_radial_211_2" cx="0" cy="0" r="1" gradientUnits="userSpaceOnUse" gradientTransform="translate(302 206) rotate(90) scale(6)">
<stop stop-color="#4961EB"/>
<stop offset="0.751" stop-color="#5480CB"/>
<stop offset="1" stop-color="#16307E"/>
</radialGradient>
<radialGradient id="paint15_radial_211_2" cx="0" cy="0" r="1" gradientUnits="userSpaceOnUse" gradientTransform="translate(375 256) rotate(90) scale(6)">
<stop offset="1" stop-color="#3043F0"/>
</radialGradient>
<radialGradient id="paint16_radial_211_2" cx="0" cy="0" r="1" gradientUnits="userSpaceOnUse" gradientTransform="translate(302 256) rotate(90) scale(6)">
<stop offset="1" stop-color="#3043F0"/>
</radialGradient>
<radialGradient id="paint17_radial_211_2" cx="0" cy="0" r="1" gradientUnits="userSpaceOnUse" gradientTransform="translate(375 156) rotate(90) scale(6)">
<stop stop-color="#4961EB"/>
<stop offset="0.751" stop-color="#5480CB"/>
<stop offset="1" stop-color="#16307E"/>
</radialGradient>
<radialGradient id="paint18_radial_211_2" cx="0" cy="0" r="1" gradientUnits="userSpaceOnUse" gradientTransform="translate(20 342) rotate(30.7003) scale(98.7072 202.986)">
<stop stop-color="#3B54E3"/>
<stop offset="1" stop-color="#15379C"/>
</radialGradient>
<radialGradient id="paint19_radial_211_2" cx="0" cy="0" r="1" gradientUnits="userSpaceOnUse" gradientTransform="translate(20 342) rotate(30.7003) scale(98.7072 202.986)">
<stop stop-color="#3B54E3"/>
<stop offset="1" stop-color="#15379C"/>
</radialGradient>
</defs>
</svg>
