<svg width="468" height="468" viewBox="0 0 468 468" fill="none" xmlns="http://www.w3.org/2000/svg">
<circle cx="234" cy="234" r="234" fill="#F98FFF"/>
<path d="M191.81 208.026C191.81 208.026 67.6202 45.0523 284.81 153.026C502 261 305.81 123 284.81 108C263.81 93 209.194 59.3333 156 82C62.1903 121.974 130.143 160.693 149.81 182.026C149.81 182.026 261.81 275.026 213.81 281.026C165.81 287.026 257.81 314.026 213.81 330.026C169.81 346.026 -162.137 234.481 230.81 371.026C308.879 398.155 297.477 348.693 284.81 314.026C281.477 298.693 267.81 263.426 239.81 245.026C211.81 226.626 191.81 208.026 191.81 208.026Z" fill="#180101"/>
<path d="M257.863 164C257.863 164 290.863 164 328.863 199C334.693 204.37 337.534 214.662 338.241 227.703C354.779 221.017 370.331 216 378.863 216C403.863 216 374.597 233.691 371.863 245.026L337.675 250.656C336.714 261.749 334.879 273.67 332.493 285.602C343.487 310.157 351.863 355.589 351.863 355.589L327.776 306.496C312.247 368.443 286.503 417.131 298.863 330.026C303.113 300.076 307.813 283.294 312.607 275.578L303.168 256.339L274.863 261C272.527 260.281 282.899 253.851 298.127 246.065L257.863 164Z" fill="#180101"/>
<path d="M284.81 153.026C67.6202 45.0523 191.81 208.026 191.81 208.026C191.81 208.026 211.81 226.626 239.81 245.026C267.81 263.426 281.477 298.693 284.81 314.026C297.477 348.693 308.879 398.155 230.81 371.026C-162.137 234.481 169.81 346.026 213.81 330.026C257.81 314.026 165.81 287.026 213.81 281.026C261.81 275.026 149.81 182.026 149.81 182.026C130.143 160.693 62.1903 121.974 156 82C209.194 59.3333 263.81 93 284.81 108C305.81 123 502 261 284.81 153.026ZM257.863 164C257.863 164 290.863 164 328.863 199C366.863 234 277.863 478.026 298.863 330.026C319.863 182.026 351.863 355.589 351.863 355.589L257.863 164ZM274.863 261C268.594 259.071 353.863 216 378.863 216C403.863 216 374.597 233.691 371.863 245.026L274.863 261Z" stroke="#181212"/>
</svg>
