<svg width="803" height="525" viewBox="0 0 803 525" fill="none" xmlns="http://www.w3.org/2000/svg">
<path fill-rule="evenodd" clip-rule="evenodd" d="M0 463C0 496.689 27.3106 524 61 524H455C465.046 524 474.399 521.037 482.235 515.938C482.283 515.907 482.346 515.908 482.393 515.942V515.942C482.441 515.977 482.506 515.977 482.555 515.942L544.682 471.418C555.042 463.993 567.469 460 580.215 460H742C775.689 460 803 432.689 803 399V2C803 0.895447 802.105 0 801 0H505H490H0.999994C0.447709 0 0 0.447693 0 1V463Z" fill="url(#paint0_linear_2037_14)"/>
<path d="M521.1 518.17C520.363 518.17 519.717 518.023 519.162 517.728C518.618 517.433 518.193 517.02 517.887 516.487C517.592 515.943 517.445 515.314 517.445 514.6V512.05C517.445 511.325 517.592 510.696 517.887 510.163C518.193 509.63 518.618 509.217 519.162 508.922C519.717 508.627 520.363 508.48 521.1 508.48C521.837 508.48 522.477 508.627 523.021 508.922C523.576 509.217 524.001 509.63 524.296 510.163C524.602 510.696 524.755 511.325 524.755 512.05V513.699H518.941V514.6C518.941 515.337 519.128 515.903 519.502 516.3C519.876 516.685 520.409 516.878 521.1 516.878C521.689 516.878 522.165 516.776 522.528 516.572C522.891 516.357 523.112 516.039 523.191 515.62H524.721C524.619 516.402 524.234 517.025 523.565 517.49C522.908 517.943 522.086 518.17 521.1 518.17ZM523.259 512.679V512.05C523.259 511.313 523.072 510.747 522.698 510.35C522.335 509.953 521.803 509.755 521.1 509.755C520.409 509.755 519.876 509.953 519.502 510.35C519.128 510.747 518.941 511.313 518.941 512.05V512.543H523.378L523.259 512.679ZM530.477 518.17C529.491 518.17 528.715 517.921 528.148 517.422C527.582 516.912 527.298 516.226 527.298 515.365C527.298 514.492 527.582 513.807 528.148 513.308C528.715 512.809 529.48 512.56 530.443 512.56H533.333V511.625C533.333 511.047 533.158 510.605 532.806 510.299C532.466 509.982 531.979 509.823 531.344 509.823C530.789 509.823 530.324 509.942 529.95 510.18C529.576 510.407 529.361 510.718 529.304 511.115H527.774C527.876 510.31 528.256 509.67 528.913 509.194C529.571 508.718 530.392 508.48 531.378 508.48C532.455 508.48 533.305 508.758 533.928 509.313C534.552 509.868 534.863 510.622 534.863 511.574V518H533.367V516.215H533.112L533.367 515.96C533.367 516.64 533.101 517.178 532.568 517.575C532.047 517.972 531.35 518.17 530.477 518.17ZM530.851 516.963C531.577 516.963 532.172 516.782 532.636 516.419C533.101 516.056 533.333 515.592 533.333 515.025V513.699H530.477C529.967 513.699 529.565 513.841 529.27 514.124C528.976 514.407 528.828 514.793 528.828 515.28C528.828 515.801 529.004 516.215 529.355 516.521C529.718 516.816 530.217 516.963 530.851 516.963ZM542.507 518C541.702 518 541.073 517.785 540.62 517.354C540.178 516.923 539.957 516.317 539.957 515.535V510.044H537.322V508.65H539.957V506.015H541.487V508.65H545.227V510.044H541.487V515.535C541.487 516.249 541.827 516.606 542.507 516.606H545.057V518H542.507ZM551.68 518.17C551.249 518.17 550.904 518.045 550.643 517.796C550.394 517.547 550.269 517.212 550.269 516.793C550.269 516.351 550.394 516 550.643 515.739C550.904 515.478 551.249 515.348 551.68 515.348C552.111 515.348 552.451 515.478 552.7 515.739C552.961 516 553.091 516.351 553.091 516.793C553.091 517.212 552.961 517.547 552.7 517.796C552.451 518.045 552.111 518.17 551.68 518.17ZM571.778 518.136C571.143 518.136 570.588 518.04 570.112 517.847C569.647 517.643 569.273 517.36 568.99 516.997C568.718 516.634 568.553 516.204 568.497 515.705H570.027C570.095 516.034 570.276 516.294 570.571 516.487C570.877 516.68 571.279 516.776 571.778 516.776H572.492C573.092 516.776 573.54 516.657 573.835 516.419C574.129 516.17 574.277 515.841 574.277 515.433C574.277 515.036 574.141 514.725 573.869 514.498C573.608 514.26 573.217 514.101 572.696 514.022L571.438 513.818C570.52 513.659 569.834 513.376 569.381 512.968C568.939 512.549 568.718 511.942 568.718 511.149C568.718 510.31 568.984 509.664 569.517 509.211C570.049 508.746 570.848 508.514 571.914 508.514H572.56C573.455 508.514 574.175 508.724 574.719 509.143C575.263 509.562 575.591 510.129 575.705 510.843H574.175C574.107 510.548 573.937 510.316 573.665 510.146C573.393 509.965 573.024 509.874 572.56 509.874H571.914C571.336 509.874 570.911 509.982 570.639 510.197C570.378 510.412 570.248 510.735 570.248 511.166C570.248 511.551 570.361 511.835 570.588 512.016C570.814 512.197 571.171 512.328 571.659 512.407L572.917 512.611C573.925 512.77 574.656 513.064 575.11 513.495C575.574 513.926 575.807 514.549 575.807 515.365C575.807 516.226 575.529 516.906 574.974 517.405C574.43 517.892 573.602 518.136 572.492 518.136H571.778ZM583.535 518C582.991 518 582.515 517.892 582.107 517.677C581.699 517.462 581.382 517.156 581.155 516.759C580.928 516.362 580.815 515.898 580.815 515.365V506.984H577.67V505.59H582.345V515.365C582.345 515.75 582.453 516.056 582.668 516.283C582.883 516.498 583.172 516.606 583.535 516.606H586.51V518H583.535ZM592.454 518.17C591.717 518.17 591.071 518.023 590.516 517.728C589.972 517.433 589.547 517.02 589.241 516.487C588.946 515.943 588.799 515.314 588.799 514.6V512.05C588.799 511.325 588.946 510.696 589.241 510.163C589.547 509.63 589.972 509.217 590.516 508.922C591.071 508.627 591.717 508.48 592.454 508.48C593.19 508.48 593.831 508.627 594.375 508.922C594.93 509.217 595.355 509.63 595.65 510.163C595.956 510.696 596.109 511.325 596.109 512.05V513.699H590.295V514.6C590.295 515.337 590.482 515.903 590.856 516.3C591.23 516.685 591.762 516.878 592.454 516.878C593.043 516.878 593.519 516.776 593.882 516.572C594.244 516.357 594.465 516.039 594.545 515.62H596.075C595.973 516.402 595.587 517.025 594.919 517.49C594.261 517.943 593.44 518.17 592.454 518.17ZM594.613 512.679V512.05C594.613 511.313 594.426 510.747 594.052 510.35C593.689 509.953 593.156 509.755 592.454 509.755C591.762 509.755 591.23 509.953 590.856 510.35C590.482 510.747 590.295 511.313 590.295 512.05V512.543H594.732L594.613 512.679ZM602.647 518.17C601.91 518.17 601.264 518.023 600.709 517.728C600.165 517.433 599.74 517.02 599.434 516.487C599.139 515.943 598.992 515.314 598.992 514.6V512.05C598.992 511.325 599.139 510.696 599.434 510.163C599.74 509.63 600.165 509.217 600.709 508.922C601.264 508.627 601.91 508.48 602.647 508.48C603.384 508.48 604.024 508.627 604.568 508.922C605.123 509.217 605.548 509.63 605.843 510.163C606.149 510.696 606.302 511.325 606.302 512.05V513.699H600.488V514.6C600.488 515.337 600.675 515.903 601.049 516.3C601.423 516.685 601.956 516.878 602.647 516.878C603.236 516.878 603.712 516.776 604.075 516.572C604.438 516.357 604.659 516.039 604.738 515.62H606.268C606.166 516.402 605.781 517.025 605.112 517.49C604.455 517.943 603.633 518.17 602.647 518.17ZM604.806 512.679V512.05C604.806 511.313 604.619 510.747 604.245 510.35C603.882 509.953 603.35 509.755 602.647 509.755C601.956 509.755 601.423 509.953 601.049 510.35C600.675 510.747 600.488 511.313 600.488 512.05V512.543H604.925L604.806 512.679ZM609.304 521.06V508.65H610.834V510.435H611.14L610.834 510.792C610.834 510.078 611.067 509.517 611.531 509.109C612.007 508.69 612.631 508.48 613.401 508.48C614.342 508.48 615.09 508.792 615.645 509.415C616.212 510.027 616.495 510.871 616.495 511.948V514.685C616.495 515.399 616.365 516.017 616.104 516.538C615.855 517.059 615.498 517.462 615.033 517.745C614.58 518.028 614.036 518.17 613.401 518.17C612.642 518.17 612.024 517.96 611.548 517.541C611.072 517.122 610.834 516.561 610.834 515.858L611.14 516.215H610.8L610.834 518.34V521.06H609.304ZM612.891 516.844C613.537 516.844 614.042 516.651 614.404 516.266C614.778 515.881 614.965 515.325 614.965 514.6V512.05C614.965 511.325 614.778 510.769 614.404 510.384C614.042 509.999 613.537 509.806 612.891 509.806C612.268 509.806 611.769 510.004 611.395 510.401C611.021 510.798 610.834 511.347 610.834 512.05V514.6C610.834 515.303 611.021 515.852 611.395 516.249C611.769 516.646 612.268 516.844 612.891 516.844ZM623.034 518.17C622.603 518.17 622.257 518.045 621.997 517.796C621.747 517.547 621.623 517.212 621.623 516.793C621.623 516.351 621.747 516 621.997 515.739C622.257 515.478 622.603 515.348 623.034 515.348C623.464 515.348 623.804 515.478 624.054 515.739C624.314 516 624.445 516.351 624.445 516.793C624.445 517.212 624.314 517.547 624.054 517.796C623.804 518.045 623.464 518.17 623.034 518.17ZM643.488 518.17C642.74 518.17 642.083 518.028 641.516 517.745C640.961 517.462 640.53 517.054 640.224 516.521C639.918 515.977 639.765 515.337 639.765 514.6V512.05C639.765 511.302 639.918 510.662 640.224 510.129C640.53 509.596 640.961 509.188 641.516 508.905C642.083 508.622 642.74 508.48 643.488 508.48C644.565 508.48 645.432 508.769 646.089 509.347C646.747 509.925 647.092 510.713 647.126 511.71H645.596C645.562 511.109 645.358 510.65 644.984 510.333C644.622 510.004 644.123 509.84 643.488 509.84C642.82 509.84 642.287 510.033 641.89 510.418C641.494 510.792 641.295 511.33 641.295 512.033V514.6C641.295 515.303 641.494 515.847 641.89 516.232C642.287 516.617 642.82 516.81 643.488 516.81C644.123 516.81 644.622 516.646 644.984 516.317C645.358 515.988 645.562 515.529 645.596 514.94H647.126C647.092 515.937 646.747 516.725 646.089 517.303C645.432 517.881 644.565 518.17 643.488 518.17ZM653.614 518.136C652.866 518.136 652.22 517.994 651.676 517.711C651.132 517.428 650.707 517.02 650.401 516.487C650.106 515.943 649.959 515.303 649.959 514.566V512.084C649.959 511.336 650.106 510.696 650.401 510.163C650.707 509.63 651.132 509.222 651.676 508.939C652.22 508.656 652.866 508.514 653.614 508.514C654.362 508.514 655.008 508.656 655.552 508.939C656.096 509.222 656.515 509.63 656.81 510.163C657.116 510.696 657.269 511.33 657.269 512.067V514.566C657.269 515.303 657.116 515.943 656.81 516.487C656.515 517.02 656.096 517.428 655.552 517.711C655.008 517.994 654.362 518.136 653.614 518.136ZM653.614 516.776C654.282 516.776 654.804 516.589 655.178 516.215C655.552 515.841 655.739 515.291 655.739 514.566V512.084C655.739 511.359 655.552 510.809 655.178 510.435C654.804 510.061 654.282 509.874 653.614 509.874C652.956 509.874 652.435 510.061 652.05 510.435C651.676 510.809 651.489 511.359 651.489 512.084V514.566C651.489 515.291 651.676 515.841 652.05 516.215C652.435 516.589 652.956 516.776 653.614 516.776ZM663.263 518.17C662.334 518.17 661.58 517.858 661.002 517.235C660.435 516.612 660.152 515.767 660.152 514.702V511.965C660.152 510.888 660.435 510.038 661.002 509.415C661.569 508.792 662.322 508.48 663.263 508.48C664.034 508.48 664.651 508.69 665.116 509.109C665.581 509.528 665.813 510.089 665.813 510.792L665.507 510.435H665.847L665.813 508.31V505.59H667.343V518H665.813V516.215H665.507L665.813 515.858C665.813 516.572 665.581 517.139 665.116 517.558C664.651 517.966 664.034 518.17 663.263 518.17ZM663.773 516.844C664.408 516.844 664.906 516.646 665.269 516.249C665.632 515.852 665.813 515.303 665.813 514.6V512.05C665.813 511.347 665.632 510.798 665.269 510.401C664.906 510.004 664.408 509.806 663.773 509.806C663.127 509.806 662.617 509.999 662.243 510.384C661.869 510.769 661.682 511.325 661.682 512.05V514.6C661.682 515.325 661.869 515.881 662.243 516.266C662.617 516.651 663.127 516.844 663.773 516.844ZM674 518.17C673.264 518.17 672.618 518.023 672.062 517.728C671.518 517.433 671.093 517.02 670.787 516.487C670.493 515.943 670.345 515.314 670.345 514.6V512.05C670.345 511.325 670.493 510.696 670.787 510.163C671.093 509.63 671.518 509.217 672.062 508.922C672.618 508.627 673.264 508.48 674 508.48C674.737 508.48 675.377 508.627 675.921 508.922C676.477 509.217 676.902 509.63 677.196 510.163C677.502 510.696 677.655 511.325 677.655 512.05V513.699H671.841V514.6C671.841 515.337 672.028 515.903 672.402 516.3C672.776 516.685 673.309 516.878 674 516.878C674.59 516.878 675.066 516.776 675.428 516.572C675.791 516.357 676.012 516.039 676.091 515.62H677.621C677.519 516.402 677.134 517.025 676.465 517.49C675.808 517.943 674.986 518.17 674 518.17ZM676.159 512.679V512.05C676.159 511.313 675.972 510.747 675.598 510.35C675.236 509.953 674.703 509.755 674 509.755C673.309 509.755 672.776 509.953 672.402 510.35C672.028 510.747 671.841 511.313 671.841 512.05V512.543H676.278L676.159 512.679ZM684.194 518.17C683.763 518.17 683.417 518.045 683.157 517.796C682.907 517.547 682.783 517.212 682.783 516.793C682.783 516.351 682.907 516 683.157 515.739C683.417 515.478 683.763 515.348 684.194 515.348C684.624 515.348 684.964 515.478 685.214 515.739C685.474 516 685.605 516.351 685.605 516.793C685.605 517.212 685.474 517.547 685.214 517.796C684.964 518.045 684.624 518.17 684.194 518.17ZM701.367 518V508.65H702.863V510.435H703.22L702.727 511.54C702.727 510.531 702.943 509.772 703.373 509.262C703.815 508.741 704.467 508.48 705.328 508.48C706.314 508.48 707.096 508.792 707.674 509.415C708.264 510.027 708.558 510.86 708.558 511.914V512.475H707.028V512.05C707.028 511.313 706.847 510.752 706.484 510.367C706.133 509.97 705.629 509.772 704.971 509.772C704.325 509.772 703.815 509.97 703.441 510.367C703.079 510.764 702.897 511.325 702.897 512.05V518H701.367ZM714.774 518.17C714.037 518.17 713.391 518.023 712.836 517.728C712.292 517.433 711.867 517.02 711.561 516.487C711.266 515.943 711.119 515.314 711.119 514.6V512.05C711.119 511.325 711.266 510.696 711.561 510.163C711.867 509.63 712.292 509.217 712.836 508.922C713.391 508.627 714.037 508.48 714.774 508.48C715.51 508.48 716.151 508.627 716.695 508.922C717.25 509.217 717.675 509.63 717.97 510.163C718.276 510.696 718.429 511.325 718.429 512.05V513.699H712.615V514.6C712.615 515.337 712.802 515.903 713.176 516.3C713.55 516.685 714.082 516.878 714.774 516.878C715.363 516.878 715.839 516.776 716.202 516.572C716.564 516.357 716.785 516.039 716.865 515.62H718.395C718.293 516.402 717.907 517.025 717.239 517.49C716.581 517.943 715.76 518.17 714.774 518.17ZM716.933 512.679V512.05C716.933 511.313 716.746 510.747 716.372 510.35C716.009 509.953 715.476 509.755 714.774 509.755C714.082 509.755 713.55 509.953 713.176 510.35C712.802 510.747 712.615 511.313 712.615 512.05V512.543H717.052L716.933 512.679ZM721.431 521.06V508.65H722.961V510.435H723.267L722.961 510.792C722.961 510.078 723.194 509.517 723.658 509.109C724.134 508.69 724.758 508.48 725.528 508.48C726.469 508.48 727.217 508.792 727.772 509.415C728.339 510.027 728.622 510.871 728.622 511.948V514.685C728.622 515.399 728.492 516.017 728.231 516.538C727.982 517.059 727.625 517.462 727.16 517.745C726.707 518.028 726.163 518.17 725.528 518.17C724.769 518.17 724.151 517.96 723.675 517.541C723.199 517.122 722.961 516.561 722.961 515.858L723.267 516.215H722.927L722.961 518.34V521.06H721.431ZM725.018 516.844C725.664 516.844 726.169 516.651 726.531 516.266C726.905 515.881 727.092 515.325 727.092 514.6V512.05C727.092 511.325 726.905 510.769 726.531 510.384C726.169 509.999 725.664 509.806 725.018 509.806C724.395 509.806 723.896 510.004 723.522 510.401C723.148 510.798 722.961 511.347 722.961 512.05V514.6C722.961 515.303 723.148 515.852 723.522 516.249C723.896 516.646 724.395 516.844 725.018 516.844ZM735.161 518.17C734.424 518.17 733.778 518.023 733.223 517.728C732.679 517.433 732.254 517.02 731.948 516.487C731.653 515.943 731.506 515.314 731.506 514.6V512.05C731.506 511.325 731.653 510.696 731.948 510.163C732.254 509.63 732.679 509.217 733.223 508.922C733.778 508.627 734.424 508.48 735.161 508.48C735.897 508.48 736.538 508.627 737.082 508.922C737.637 509.217 738.062 509.63 738.357 510.163C738.663 510.696 738.816 511.325 738.816 512.05V513.699H733.002V514.6C733.002 515.337 733.189 515.903 733.563 516.3C733.937 516.685 734.469 516.878 735.161 516.878C735.75 516.878 736.226 516.776 736.589 516.572C736.951 516.357 737.172 516.039 737.252 515.62H738.782C738.68 516.402 738.294 517.025 737.626 517.49C736.968 517.943 736.147 518.17 735.161 518.17ZM737.32 512.679V512.05C737.32 511.313 737.133 510.747 736.759 510.35C736.396 509.953 735.863 509.755 735.161 509.755C734.469 509.755 733.937 509.953 733.563 510.35C733.189 510.747 733.002 511.313 733.002 512.05V512.543H737.439L737.32 512.679ZM744.538 518.17C743.552 518.17 742.776 517.921 742.209 517.422C741.642 516.912 741.359 516.226 741.359 515.365C741.359 514.492 741.642 513.807 742.209 513.308C742.776 512.809 743.541 512.56 744.504 512.56H747.394V511.625C747.394 511.047 747.218 510.605 746.867 510.299C746.527 509.982 746.04 509.823 745.405 509.823C744.85 509.823 744.385 509.942 744.011 510.18C743.637 510.407 743.422 510.718 743.365 511.115H741.835C741.937 510.31 742.317 509.67 742.974 509.194C743.631 508.718 744.453 508.48 745.439 508.48C746.516 508.48 747.366 508.758 747.989 509.313C748.612 509.868 748.924 510.622 748.924 511.574V518H747.428V516.215H747.173L747.428 515.96C747.428 516.64 747.162 517.178 746.629 517.575C746.108 517.972 745.411 518.17 744.538 518.17ZM744.912 516.963C745.637 516.963 746.232 516.782 746.697 516.419C747.162 516.056 747.394 515.592 747.394 515.025V513.699H744.538C744.028 513.699 743.626 513.841 743.331 514.124C743.036 514.407 742.889 514.793 742.889 515.28C742.889 515.801 743.065 516.215 743.416 516.521C743.779 516.816 744.277 516.963 744.912 516.963ZM756.567 518C755.763 518 755.134 517.785 754.68 517.354C754.238 516.923 754.017 516.317 754.017 515.535V510.044H751.382V508.65H754.017V506.015H755.547V508.65H759.287V510.044H755.547V515.535C755.547 516.249 755.887 516.606 756.567 516.606H759.117V518H756.567ZM767.461 518.17C767.031 518.17 766.691 518.045 766.441 517.796C766.181 517.547 766.05 517.212 766.05 516.793C766.05 516.351 766.181 516 766.441 515.739C766.691 515.478 767.031 515.348 767.461 515.348C767.892 515.348 768.238 515.478 768.498 515.739C768.748 516 768.872 516.351 768.872 516.793C768.872 517.212 768.748 517.547 768.498 517.796C768.238 518.045 767.892 518.17 767.461 518.17ZM775.944 518.17C775.514 518.17 775.174 518.045 774.924 517.796C774.664 517.547 774.533 517.212 774.533 516.793C774.533 516.351 774.664 516 774.924 515.739C775.174 515.478 775.514 515.348 775.944 515.348C776.375 515.348 776.721 515.478 776.981 515.739C777.231 516 777.355 516.351 777.355 516.793C777.355 517.212 777.231 517.547 776.981 517.796C776.721 518.045 776.375 518.17 775.944 518.17ZM784.427 518.17C783.997 518.17 783.651 518.045 783.39 517.796C783.141 517.547 783.016 517.212 783.016 516.793C783.016 516.351 783.141 516 783.39 515.739C783.651 515.478 783.997 515.348 784.427 515.348C784.858 515.348 785.198 515.478 785.447 515.739C785.708 516 785.838 516.351 785.838 516.793C785.838 517.212 785.708 517.547 785.447 517.796C785.198 518.045 784.858 518.17 784.427 518.17Z" fill="url(#paint1_linear_2037_14)"/>
<defs>
<linearGradient id="paint0_linear_2037_14" x1="401.5" y1="524" x2="401.5" y2="0" gradientUnits="userSpaceOnUse">
<stop stop-color="#D691FF"/>
<stop offset="1" stop-color="#BB16F2"/>
</linearGradient>
<linearGradient id="paint1_linear_2037_14" x1="803" y1="513" x2="516" y2="513" gradientUnits="userSpaceOnUse">
<stop offset="0.9998" stop-color="#2B113A"/>
<stop offset="0.9999" stop-color="#C953F9"/>
<stop offset="1" stop-color="#BB16F2"/>
</linearGradient>
</defs>
</svg>
