<svg width="419" height="180" viewBox="0 0 419 180" fill="none" xmlns="http://www.w3.org/2000/svg">
<path d="M331 40C291.543 23.933 176.151 68.1284 92.2607 119.241C65.8404 135.338 -51.2181 211.052 27.6953 165.146C106.609 119.241 185.522 96.2879 197.479 90.5497C209.435 84.8114 295.13 63.7047 331 66C366.87 68.2953 370.457 56.067 331 40Z" fill="#848982"/>
<path d="M417 19C406.239 -8.54343 283 1.99999 283 1.99999C283 1.99999 327.565 32.7047 368 35C408.435 37.2953 324.218 119.241 351.718 108.912C379.218 98.5832 427.761 46.5434 417 19Z" fill="#848982"/>
</svg>
